<svg viewBox="0 0 336.75 41" xmlns="http://www.w3.org/2000/svg" data-logo="logo">
        <g transform="translate(0, 0.5)
    rotate(0 27 20)" id="logogram" style="opacity: 1;"><path fill="#FEC147" d="M26 0H38V12H26V0Z"></path><path fill="#F45643" d="M38 12H54V28H38V12Z"></path><path fill="#F45643" d="M26 28H38V40H26V28Z"></path><path fill="#207AE6" d="M16 12H26V22H16V12Z"></path><path fill="#207AE6" d="M8 22H16V30H8V22Z"></path><path fill="#42C046" d="M6 2H16V12H6V2Z"></path><path fill="#42C046" d="M0 12H6V18H0V12Z"></path></g>
        <g transform="translate(60, 6.81201171875)" id="logotype" style="opacity: 1;"><path d="M13.52 27L8.31 27L8.31 1.54L18.24 1.54Q21.14 1.54 23.18 2.64Q25.21 3.74 26.28 5.68Q27.35 7.62 27.35 10.13L27.35 10.13Q27.35 12.66 26.26 14.58Q25.17 16.51 23.12 17.59Q21.06 18.68 18.12 18.68L18.12 18.68L11.73 18.68L11.73 14.47L17.28 14.47Q18.89 14.47 19.92 13.92Q20.95 13.36 21.46 12.39Q21.96 11.41 21.96 10.13L21.96 10.13Q21.96 8.85 21.46 7.88Q20.95 6.90 19.91 6.37Q18.87 5.84 17.26 5.84L17.26 5.84L13.52 5.84L13.52 27ZM37.22 27.38L37.22 27.38Q34.30 27.38 32.18 26.18Q30.06 24.98 28.92 22.78Q27.79 20.57 27.79 17.55L27.79 17.55Q27.79 14.59 28.92 12.37Q30.04 10.15 32.11 8.90Q34.18 7.65 36.96 7.65L36.96 7.65Q38.84 7.65 40.47 8.25Q42.09 8.85 43.32 10.06Q44.55 11.26 45.24 13.07Q45.94 14.88 45.94 17.34L45.94 17.34L45.94 18.78L29.89 18.78L29.89 15.57L43.42 15.57L41.03 16.42Q41.03 14.93 40.58 13.83Q40.13 12.73 39.23 12.12Q38.33 11.52 37.00 11.52L37.00 11.52Q35.68 11.52 34.75 12.13Q33.82 12.75 33.34 13.80Q32.86 14.85 32.86 16.20L32.86 16.20L32.86 18.47Q32.86 20.13 33.42 21.26Q33.97 22.39 34.97 22.95Q35.97 23.51 37.31 23.51L37.31 23.51Q38.21 23.51 38.95 23.26Q39.68 23.00 40.20 22.50Q40.72 21.99 41.00 21.26L41.00 21.26L45.65 22.13Q45.18 23.70 44.04 24.89Q42.89 26.08 41.18 26.73Q39.46 27.38 37.22 27.38ZM52.29 27L47.17 27L47.17 7.89L51.92 7.89L52.17 12.64L51.80 12.64Q52.24 10.88 53.10 9.77Q53.97 8.66 55.13 8.13Q56.29 7.60 57.57 7.60L57.57 7.60Q59.64 7.60 60.91 8.91Q62.17 10.22 62.77 12.95L62.77 12.95L62.17 12.95Q62.60 11.12 63.56 9.94Q64.53 8.75 65.85 8.18Q67.18 7.60 68.63 7.60L68.63 7.60Q70.39 7.60 71.77 8.37Q73.14 9.14 73.94 10.59Q74.73 12.03 74.73 14.11L74.73 14.11L74.73 27L69.60 27L69.60 15.09Q69.60 13.46 68.72 12.68Q67.84 11.89 66.56 11.89L66.56 11.89Q65.61 11.89 64.90 12.31Q64.19 12.73 63.80 13.48Q63.42 14.23 63.42 15.24L63.42 15.24L63.42 27L58.46 27L58.46 14.95Q58.46 13.55 57.63 12.72Q56.80 11.89 55.49 11.89L55.49 11.89Q54.58 11.89 53.86 12.30Q53.13 12.71 52.71 13.51Q52.29 14.30 52.29 15.45L52.29 15.45L52.29 27ZM83.41 27.24L83.41 27.24Q81.43 27.24 79.94 26.38Q78.45 25.51 77.64 23.90Q76.83 22.28 76.83 20.04L76.83 20.04L76.83 7.89L81.96 7.89L81.96 19.16Q81.96 20.93 82.88 21.94Q83.80 22.95 85.41 22.95L85.41 22.95Q86.50 22.95 87.34 22.48Q88.18 22.01 88.65 21.11Q89.12 20.22 89.12 18.95L89.12 18.95L89.12 7.89L94.25 7.89L94.25 27L89.41 27L89.34 22.23L89.63 22.23Q88.88 24.64 87.33 25.94Q85.79 27.24 83.41 27.24ZM103.34 27.32L103.34 27.32Q101.13 27.32 99.36 26.19Q97.59 25.05 96.57 22.86Q95.54 20.66 95.54 17.48L95.54 17.48Q95.54 14.22 96.60 12.03Q97.66 9.84 99.42 8.75Q101.18 7.65 103.30 7.65L103.30 7.65Q104.92 7.65 106.00 8.20Q107.08 8.75 107.74 9.55Q108.41 10.35 108.74 11.11L108.74 11.11L108.91 11.11L108.91 1.54L114.03 1.54L114.03 27L108.99 27L108.99 23.94L108.74 23.94Q108.39 24.71 107.72 25.49Q107.04 26.27 105.97 26.79Q104.89 27.32 103.34 27.32ZM104.91 23.21L104.91 23.21Q106.21 23.21 107.13 22.49Q108.05 21.77 108.53 20.48Q109.01 19.19 109.01 17.46L109.01 17.46Q109.01 15.72 108.54 14.45Q108.07 13.17 107.15 12.47Q106.22 11.76 104.91 11.76L104.91 11.76Q103.56 11.76 102.64 12.49Q101.73 13.23 101.27 14.51Q100.81 15.79 100.81 17.46L100.81 17.46Q100.81 19.14 101.28 20.44Q101.75 21.74 102.66 22.47Q103.57 23.21 104.91 23.21ZM121.47 27.38L121.47 27.38Q119.65 27.38 118.21 26.74Q116.77 26.09 115.94 24.82Q115.11 23.55 115.11 21.65L115.11 21.65Q115.11 20.06 115.70 18.98Q116.29 17.91 117.30 17.26Q118.32 16.61 119.61 16.27Q120.90 15.93 122.32 15.79L122.32 15.79Q123.98 15.62 124.99 15.47Q126.01 15.33 126.48 15.01Q126.95 14.70 126.95 14.08L126.95 14.08L126.95 13.99Q126.95 13.17 126.61 12.61Q126.27 12.05 125.60 11.75Q124.94 11.45 123.96 11.45L123.96 11.45Q122.97 11.45 122.23 11.75Q121.50 12.05 121.04 12.54Q120.58 13.04 120.35 13.65L120.35 13.65L115.66 12.87Q116.15 11.21 117.30 10.05Q118.44 8.88 120.14 8.27Q121.84 7.65 123.96 7.65L123.96 7.65Q125.52 7.65 126.97 8.02Q128.42 8.39 129.57 9.16Q130.73 9.93 131.40 11.16Q132.08 12.39 132.08 14.13L132.08 14.13L132.08 27L127.23 27L127.23 24.35L127.05 24.35Q126.59 25.24 125.82 25.91Q125.05 26.59 123.97 26.98Q122.88 27.38 121.47 27.38ZM122.92 23.77L122.92 23.77Q124.13 23.77 125.05 23.29Q125.96 22.81 126.47 21.99Q126.99 21.17 126.99 20.16L126.99 20.16L126.99 18.10Q126.76 18.27 126.30 18.40Q125.84 18.54 125.28 18.64Q124.71 18.75 124.17 18.83Q123.62 18.92 123.19 18.97L123.19 18.97Q122.25 19.10 121.53 19.41Q120.82 19.72 120.42 20.22Q120.03 20.73 120.03 21.51L120.03 21.51Q120.03 22.25 120.41 22.75Q120.78 23.26 121.42 23.51Q122.06 23.77 122.92 23.77ZM145.52 27L140.31 27L140.31 1.54L157.06 1.54L157.06 5.86L145.52 5.86L145.52 12.97L155.93 12.97L155.93 17.22L145.52 17.22L145.52 27ZM165.04 27.24L165.04 27.24Q163.06 27.24 161.57 26.38Q160.08 25.51 159.27 23.90Q158.46 22.28 158.46 20.04L158.46 20.04L158.46 7.89L163.59 7.89L163.59 19.16Q163.59 20.93 164.51 21.94Q165.43 22.95 167.04 22.95L167.04 22.95Q168.13 22.95 168.97 22.48Q169.81 22.01 170.28 21.11Q170.75 20.22 170.75 18.95L170.75 18.95L170.75 7.89L175.87 7.89L175.87 27L171.04 27L170.97 22.23L171.26 22.23Q170.51 24.64 168.96 25.94Q167.41 27.24 165.04 27.24ZM183.10 27L177.97 27L177.97 7.89L182.93 7.89L182.93 11.23L183.13 11.23Q183.66 9.45 184.90 8.54Q186.14 7.64 187.75 7.64L187.75 7.64Q188.14 7.64 188.60 7.68Q189.05 7.72 189.41 7.81L189.41 7.81L189.41 12.39Q189.07 12.27 188.42 12.20Q187.77 12.13 187.19 12.13L187.19 12.13Q186.02 12.13 185.08 12.64Q184.14 13.14 183.62 14.04Q183.10 14.93 183.10 16.13L183.10 16.13L183.10 27ZM195.08 15.94L195.08 15.94L195.08 27L189.95 27L189.95 7.89L194.79 7.89L194.87 12.66L194.57 12.66Q195.32 10.27 196.85 8.96Q198.38 7.65 200.80 7.65L200.80 7.65Q202.79 7.65 204.26 8.52Q205.73 9.38 206.55 11.00Q207.37 12.61 207.37 14.85L207.37 14.85L207.37 27L202.24 27L202.24 15.74Q202.24 13.96 201.32 12.95Q200.41 11.94 198.79 11.94L198.79 11.94Q197.71 11.94 196.86 12.41Q196.02 12.88 195.55 13.77Q195.08 14.66 195.08 15.94ZM214.59 27L209.47 27L209.47 7.89L214.59 7.89L214.59 27ZM212.03 5.40L212.03 5.40Q210.87 5.40 210.05 4.63Q209.23 3.86 209.23 2.77L209.23 2.77Q209.23 1.67 210.05 0.90Q210.87 0.13 212.03 0.13L212.03 0.13Q213.19 0.13 214.02 0.90Q214.85 1.66 214.85 2.77L214.85 2.77Q214.85 3.86 214.02 4.63Q213.19 5.40 212.03 5.40ZM214.83 7.89L226.16 7.89L226.16 11.81L214.83 11.81L214.83 7.89ZM217.46 21.86L217.46 3.35L222.59 3.35L222.59 21.41Q222.59 22.32 222.99 22.75Q223.39 23.19 224.33 23.19L224.33 23.19Q224.62 23.19 225.15 23.11Q225.68 23.04 225.96 22.97L225.96 22.97L226.69 26.81Q225.84 27.07 224.99 27.17Q224.14 27.27 223.38 27.27L223.38 27.27Q220.50 27.27 218.98 25.87Q217.46 24.47 217.46 21.86L217.46 21.86ZM233.80 27.24L233.80 27.24Q231.82 27.24 230.33 26.38Q228.84 25.51 228.03 23.90Q227.22 22.28 227.22 20.04L227.22 20.04L227.22 7.89L232.35 7.89L232.35 19.16Q232.35 20.93 233.27 21.94Q234.19 22.95 235.80 22.95L235.80 22.95Q236.89 22.95 237.73 22.48Q238.57 22.01 239.04 21.11Q239.51 20.22 239.51 18.95L239.51 18.95L239.51 7.89L244.63 7.89L244.63 27L239.80 27L239.73 22.23L240.02 22.23Q239.27 24.64 237.72 25.94Q236.17 27.24 233.80 27.24ZM251.86 27L246.73 27L246.73 7.89L251.69 7.89L251.69 11.23L251.89 11.23Q252.42 9.45 253.66 8.54Q254.90 7.64 256.51 7.64L256.51 7.64Q256.90 7.64 257.35 7.68Q257.81 7.72 258.17 7.81L258.17 7.81L258.17 12.39Q257.82 12.27 257.17 12.20Q256.53 12.13 255.94 12.13L255.94 12.13Q254.78 12.13 253.84 12.64Q252.90 13.14 252.38 14.04Q251.86 14.93 251.86 16.13L251.86 16.13L251.86 27ZM267.34 27.38L267.34 27.38Q264.42 27.38 262.30 26.18Q260.18 24.98 259.04 22.78Q257.91 20.57 257.91 17.55L257.91 17.55Q257.91 14.59 259.04 12.37Q260.16 10.15 262.23 8.90Q264.30 7.65 267.08 7.65L267.08 7.65Q268.96 7.65 270.59 8.25Q272.21 8.85 273.44 10.06Q274.67 11.26 275.36 13.07Q276.06 14.88 276.06 17.34L276.06 17.34L276.06 18.78L260.01 18.78L260.01 15.57L273.54 15.57L271.15 16.42Q271.15 14.93 270.70 13.83Q270.25 12.73 269.35 12.12Q268.45 11.52 267.12 11.52L267.12 11.52Q265.80 11.52 264.87 12.13Q263.94 12.75 263.46 13.80Q262.98 14.85 262.98 16.20L262.98 16.20L262.98 18.47Q262.98 20.13 263.54 21.26Q264.09 22.39 265.09 22.95Q266.09 23.51 267.43 23.51L267.43 23.51Q268.33 23.51 269.07 23.26Q269.80 23.00 270.32 22.50Q270.84 21.99 271.12 21.26L271.12 21.26L275.77 22.13Q275.31 23.70 274.16 24.89Q273.02 26.08 271.30 26.73Q269.58 27.38 267.34 27.38Z" fill="#ffffff"></path></g>
        
      </svg>